<svg width="1131" height="253" viewBox="0 0 1131 253" fill="none" xmlns="http://www.w3.org/2000/svg">
<path d="M29.5291 61.282C38.7291 12.482 78.3624 5.94863 97.0291 8.78196C165.029 6.61525 312.529 3.08184 358.529 6.28184C404.529 9.48184 414.362 44.2819 413.529 61.282C408.362 87.7819 395.729 151.482 386.529 194.282C377.329 237.082 354.696 243.449 344.529 241.282C264.029 241.449 93.5291 241.682 55.5291 241.282C17.5291 240.882 6.02905 209.782 5.02905 194.282C9.36239 170.282 20.3291 110.082 29.5291 61.282Z" fill="black" stroke="white" stroke-width="10"/>
<path d="M46.0354 61.4407C49.6354 28.6407 75.8687 23.1074 88.5354 24.4407C170.202 24.1074 338.235 23.6408 357.035 24.4408C375.835 25.2408 376.202 41.7741 374.035 49.9408C368.035 81.2741 354.535 150.041 348.535 174.441C342.535 198.841 327.029 199.441 319.035 199.441C231.202 199.774 52.1354 200.241 38.5354 199.441C24.9354 198.641 21.8687 185.441 22.0354 178.941C28.5354 153.441 42.4354 94.2407 46.0354 61.4407Z" fill="white" stroke="black"/>
<path d="M156.05 95.8844H174.4C172.62 57.1008 118.329 57.3924 99.3379 82.6163C86.8519 99.2088 83.0303 128.369 96.5082 145.37C113.108 166.307 152.374 161.758 166.202 139.45C167.252 137.759 171.249 128.923 170.986 127.699C170.491 125.337 155.787 124.987 152.87 124.783C148.144 148.286 112.145 149.657 108.848 125.278C106.223 105.887 113.866 80.5751 137.146 80.5459C148.436 80.5459 152.666 85.9698 156.079 95.8844H156.05ZM287.649 65.9365L282.719 156.889L302.439 157.968L307.37 67.0154L287.649 65.9365ZM210.049 72.5268H192.808C188.928 76.5509 192.545 84.8617 190.97 89.6149L189.307 91.2771L181.109 91.452L179.972 103.7C182.393 103.962 189.19 102.591 189.861 105.449L186.652 136.534C183.035 157.151 198.788 160.592 215.388 156.918L217.838 144.32L207.394 143.591L205.731 141.929L206.84 105.537C207.978 102.096 216.963 104.37 219.997 103.641L221.164 91.452L208.299 90.3731L210.049 72.5559V72.5268ZM251.212 91.452H233.416L228.953 157.093H245.086C246.223 156.393 246.515 155.576 246.748 154.293C250.162 135.514 243.744 98.9463 274.579 107.024L276.709 90.4314C267.52 87.5153 256.375 91.8311 251.766 100.346C249.199 99.3546 252.058 93.6682 251.212 91.452Z" fill="black"/>
<path d="M730.608 6.60302C752.284 9.05251 765.732 26.1698 759.577 47.7779C756.455 58.7131 748.724 62.9414 738.981 67.228L766.257 97.8176C767.366 98.4299 765.265 100.034 765.12 100.034H741.752L716.722 68.8902H697.789V100.034H678.301L676.638 98.3716V24.391H668.849L669.958 6.60302C689.212 8.17769 711.762 4.47429 730.608 6.60302ZM697.759 26.0823V51.1022H728.362C740.468 51.1022 743.59 30.2815 731.396 25.8199C720.923 21.9998 709.779 26.8114 699.393 24.6826L697.759 26.0823Z" fill="white"/>
<path d="M563.127 29.9609L546.031 36.4637C527.127 11.8813 486.635 23.4581 488.532 56.1472C489.903 79.709 516.917 90.3234 536.346 79.3882C541.189 76.6763 542.851 72.9729 546.994 69.9401C549.824 70.5525 564.235 76.4721 564.206 78.3384C550.67 98.0219 532.32 103.096 509.098 101.171C469.569 97.9052 453.145 46.6408 480.713 19.3172C501.951 -1.73675 550.816 -0.686968 563.127 29.9317V29.9609Z" fill="white"/>
<path d="M658.814 6.60303L659.922 24.4202L628.765 25.5283V98.4008L627.103 100.063H607.615V26.0823C606.623 24.4785 605.398 24.5368 603.764 24.3619C594.837 23.3121 584.364 25.4991 575.321 24.4202V6.60303H658.784H658.814Z" fill="white"/>
<path d="M800.156 81.1377H851.355V98.3716L849.692 100.034H780.669L779.006 98.3716V8.26519L780.669 6.60303H798.493L800.156 8.26519V81.1377Z" fill="white"/>
<path d="M826.497 178.206C817.366 180.306 819.029 170.158 820.867 164.238L842.046 164.326C853.774 176.865 863.226 191.387 874.37 204.363C876.12 206.405 879.825 207.513 879.913 211.566C880.35 211.858 882.13 210.108 882.13 209.904V163.743H897.708V239.385H882.13C881.984 239.385 881.984 237.577 881.051 236.615C867.281 222.56 856.866 205.53 843.184 191.533V239.356H826.497V178.177V178.206Z" fill="#679DFA"/>
<path d="M811.473 196.024C816.141 197.453 811.356 216.699 809.548 220.81C804.122 233.145 792.423 240.348 779.179 241.631C716.282 247.726 715.524 158.027 779.237 162.606C790.002 163.364 803.626 168.904 807.564 179.315L794.232 185.555C777.633 166.63 745.017 180.16 749.072 206.113C753.127 232.008 790.615 236.003 795.311 210.517H771.944C772.586 205.909 770.281 199.581 773.607 196.053H811.444L811.473 196.024Z" fill="#679DFA"/>
<path d="M467.029 239.415V165.434L468.692 163.772H503.203C506.296 163.772 518.753 167.796 521.932 169.517C545.533 182.376 545.796 220.956 522.341 234.049C520.415 235.128 510.088 239.386 508.775 239.386H467.029V239.415ZM483.716 179.344V224.397L485.991 225.622C495.91 223.61 506.879 227.605 515.456 220.548C524.587 213.024 525.171 193.195 516.535 184.943C515.164 183.63 507.929 179.373 506.529 179.373H483.716V179.344Z" fill="#679DFA"/>
<path d="M610.589 163.743V178.206H569.98C566.509 182.376 569.047 189.608 568.317 194.886H608.372V208.242H568.317V224.368L569.98 226.03H611.727V239.385H552.739V163.743H610.618H610.589Z" fill="#679DFA"/>
<path d="M681.391 170.916C682.296 171.674 686.176 176.049 686.176 176.544L675.528 184.738C669.226 179.869 664.238 175.728 655.69 175.495C648.222 175.29 633.869 180.277 641.745 188.821C649.622 197.365 684.192 189.637 688.247 211.304C694.898 246.938 636.64 250.321 621.675 227.78C618.115 222.414 628.122 221.189 631.331 217.282L632.819 217.194C635.532 224.047 647.493 228.363 654.552 228.392C661.612 228.421 677.074 223.872 670.772 214.307C666.717 208.154 648.28 207.892 640.637 205.501C632.206 202.847 624.971 198.24 623.921 188.85C620.508 158.727 663.8 155.957 681.362 170.945L681.391 170.916Z" fill="#679DFA"/>
<path d="M718.557 163.685H701.871V239.386H718.557V163.685Z" fill="#679DFA"/>
<path d="M1090.92 170.887C1113.88 188.18 1108.34 227.955 1081 238.511C1048.88 250.904 1017.08 228.684 1022.63 193.516C1027.35 163.539 1068.25 153.857 1090.92 170.887ZM1088.85 202.06C1088.85 188.121 1077.53 176.807 1063.59 176.807C1049.64 176.807 1038.32 188.121 1038.32 202.06C1038.32 215.999 1049.64 227.313 1063.59 227.313C1077.53 227.313 1088.85 215.999 1088.85 202.06Z" fill="#679DFA"/>
<path d="M1007.25 174.416C1009.35 176.719 1012.21 179.052 1012.36 182.639C1007.81 182.114 1001.77 189.083 997.888 186.576C996.984 185.992 996.517 183.922 994.942 182.814C965.185 162.226 938.113 200.339 961.655 221.656C973.091 231.979 992.287 227.43 1000.66 215.124L1012.27 222.268C998.851 250.175 950.365 247.346 939.134 218.565C921.397 173.074 979.334 144.205 1007.22 174.416H1007.25Z" fill="#679DFA"/>
<path d="M1121.49 241.66C1126.52 241.66 1130.6 237.587 1130.6 232.562C1130.6 227.537 1126.52 223.464 1121.49 223.464C1116.47 223.464 1112.39 227.537 1112.39 232.562C1112.39 237.587 1116.47 241.66 1121.49 241.66Z" fill="#679DFA"/>
<path d="M286.611 151.13C289.443 150.665 291.698 151.568 293.324 152.128L293.323 152.129C301.25 154.789 312.358 160.33 323.239 166.152C334.141 171.985 345.167 178.293 352.718 182.427L352.722 182.43C355.085 183.729 359.031 185.678 363.204 187.9C365.221 188.975 367.227 190.081 368.944 191.119C370.604 192.123 372.192 193.18 373.232 194.162L373.242 194.171L373.251 194.18C374.024 194.923 374.814 195.799 375.324 196.943L375.806 196.803V198.589C375.944 199.486 375.899 200.375 375.778 201.247L372.877 201.046L373.648 203.685L350.418 210.479C353.456 213.96 356.565 217.415 359.693 220.896C363.294 224.904 366.919 228.945 370.445 233.058L371.197 233.935L371.167 235.088C371.062 239.167 369.464 243.376 366.573 246.256C363.559 249.259 359.185 250.729 354.224 249.051L353.517 248.811L353.005 248.268C352.037 247.243 350.249 245.005 348.198 242.41C346.093 239.747 343.607 236.574 341.135 233.508C338.656 230.434 336.239 227.528 334.284 225.403C333.879 224.963 333.502 224.568 333.158 224.219C332.843 224.897 332.49 225.687 332.101 226.584C330.955 229.228 329.746 232.193 328.403 235.331C327.105 238.365 325.743 241.411 324.465 243.771C323.83 244.943 323.162 246.046 322.481 246.921C322.14 247.359 321.744 247.808 321.292 248.192C320.862 248.557 320.21 249.012 319.354 249.215L318.595 249.396L317.845 249.183L314.753 248.308L313.079 247.834L312.658 246.146C308.669 230.138 303.232 214.497 297.907 198.703V198.704C296.121 193.419 293.475 187.22 290.897 180.835C288.363 174.557 285.893 168.097 284.665 162.62L284.664 162.614C283.998 159.62 283.948 156.752 284.101 153.927L284.232 151.521L286.611 151.13Z" fill="white" stroke="black" stroke-width="6"/>
</svg>